<?xml version="1.0" encoding="utf-8"?>
<!-- Generator: Adobe Illustrator 26.2.1, SVG Export Plug-In . SVG Version: 6.00 Build 0)  -->
<svg version="1.1" id="_x3C_Layer_x3E_" xmlns="http://www.w3.org/2000/svg" xmlns:xlink="http://www.w3.org/1999/xlink" x="0px"
	 y="0px" viewBox="0 0 3780 1635.607" enable-background="new 0 0 3780 1635.607" xml:space="preserve">
<g>
	<rect x="0.057" y="152.147" fill="#F1E9E4" width="3779.886" height="1064.844"/>
</g>
<g>
	<rect x="0.057" y="0" fill="#FFF9F5" width="3779.886" height="149.651"/>
</g>
<g>
	<polygon fill="#EEBA9F" points="0.031,1518.547 0.114,1206.857 3780,1207.815 3779.886,1635.607 0,1634.649 0.031,1518.547 	"/>
</g>
<g>
	<rect x="0.096" y="1273.154" fill="#C98973" width="3779.886" height="2.26"/>
</g>
<g>
	<rect x="0.08" y="1333.295" fill="#C98973" width="3779.885" height="2.26"/>
</g>
<g>
	<rect x="0.064" y="1397.956" fill="#C98973" width="3779.886" height="2.26"/>
</g>
<g>
	<rect x="0.048" y="1456.966" fill="#C98973" width="3779.885" height="2.26"/>
</g>
<g>
	<rect x="0.032" y="1513.717" fill="#C98973" width="3779.887" height="2.26"/>
</g>
<g>
	<rect x="0.016" y="1573.858" fill="#C98973" width="3779.885" height="2.26"/>
</g>
<g>
	<rect x="355.95" y="1206.931" fill="#C98973" width="2.26" height="67.831"/>
</g>
<g>
	<rect x="211.266" y="1273.806" fill="#C98973" width="2.128" height="60.14"/>
</g>
<g>
	<rect x="497.524" y="1273.806" fill="#C98973" width="2.128" height="60.14"/>
</g>
<g>
	<rect x="783.782" y="1273.806" fill="#C98973" width="2.128" height="60.14"/>
</g>
<g>
	<rect x="1070.04" y="1273.806" fill="#C98973" width="2.128" height="60.14"/>
</g>
<g>
	<rect x="1356.298" y="1273.806" fill="#C98973" width="2.128" height="60.14"/>
</g>
<g>
	<rect x="1642.557" y="1273.806" fill="#C98973" width="2.128" height="60.14"/>
</g>
<g>
	<rect x="1928.815" y="1273.806" fill="#C98973" width="2.128" height="60.14"/>
</g>
<g>
	<rect x="2215.073" y="1273.806" fill="#C98973" width="2.128" height="60.14"/>
</g>
<g>
	<rect x="2501.331" y="1273.806" fill="#C98973" width="2.128" height="60.14"/>
</g>
<g>
	<rect x="2787.59" y="1273.806" fill="#C98973" width="2.128" height="60.14"/>
</g>
<g>
	<rect x="3073.848" y="1273.806" fill="#C98973" width="2.128" height="60.14"/>
</g>
<g>
	<rect x="3360.106" y="1273.806" fill="#C98973" width="2.128" height="60.14"/>
</g>
<g>
	<rect x="3646.364" y="1273.806" fill="#C98973" width="2.128" height="60.14"/>
</g>
<g>
	<rect x="638.964" y="1206.931" fill="#C98973" width="2.26" height="67.831"/>
</g>
<g>
	<rect x="921.98" y="1206.931" fill="#C98973" width="2.26" height="67.831"/>
</g>
<g>
	<rect x="1204.995" y="1206.931" fill="#C98973" width="2.26" height="67.831"/>
</g>
<g>
	<rect x="1488.01" y="1206.931" fill="#C98973" width="2.26" height="67.831"/>
</g>
<g>
	<rect x="1771.024" y="1206.931" fill="#C98973" width="2.26" height="67.831"/>
</g>
<g>
	<rect x="2054.04" y="1206.931" fill="#C98973" width="2.26" height="67.831"/>
</g>
<g>
	<rect x="2337.055" y="1206.931" fill="#C98973" width="2.26" height="67.831"/>
</g>
<g>
	<rect x="2620.07" y="1206.931" fill="#C98973" width="2.26" height="67.831"/>
</g>
<g>
	<rect x="2903.084" y="1206.931" fill="#C98973" width="2.26" height="67.831"/>
</g>
<g>
	<rect x="3186.099" y="1206.931" fill="#C98973" width="2.26" height="67.831"/>
</g>
<g>
	<rect x="3469.115" y="1206.931" fill="#C98973" width="2.26" height="67.831"/>
</g>
<g>
	<rect x="355.95" y="1332.643" fill="#C98973" width="2.26" height="67.832"/>
</g>
<g>
	<rect x="211.266" y="1399.517" fill="#C98973" width="2.128" height="60.14"/>
</g>
<g>
	<rect x="497.524" y="1399.517" fill="#C98973" width="2.128" height="60.14"/>
</g>
<g>
	<rect x="783.782" y="1399.517" fill="#C98973" width="2.128" height="60.14"/>
</g>
<g>
	<rect x="1070.04" y="1399.517" fill="#C98973" width="2.128" height="60.14"/>
</g>
<g>
	<rect x="1356.298" y="1399.517" fill="#C98973" width="2.128" height="60.14"/>
</g>
<g>
	<rect x="1642.557" y="1399.517" fill="#C98973" width="2.128" height="60.14"/>
</g>
<g>
	<rect x="1928.815" y="1399.517" fill="#C98973" width="2.128" height="60.14"/>
</g>
<g>
	<rect x="2215.073" y="1399.517" fill="#C98973" width="2.128" height="60.14"/>
</g>
<g>
	<rect x="2501.331" y="1399.517" fill="#C98973" width="2.128" height="60.14"/>
</g>
<g>
	<rect x="2787.59" y="1399.517" fill="#C98973" width="2.128" height="60.14"/>
</g>
<g>
	<rect x="3073.848" y="1399.517" fill="#C98973" width="2.128" height="60.14"/>
</g>
<g>
	<rect x="3360.106" y="1399.517" fill="#C98973" width="2.128" height="60.14"/>
</g>
<g>
	<rect x="3646.364" y="1399.517" fill="#C98973" width="2.128" height="60.14"/>
</g>
<g>
	<rect x="638.964" y="1332.643" fill="#C98973" width="2.26" height="67.832"/>
</g>
<g>
	<rect x="921.98" y="1332.643" fill="#C98973" width="2.26" height="67.832"/>
</g>
<g>
	<rect x="1204.995" y="1332.643" fill="#C98973" width="2.26" height="67.832"/>
</g>
<g>
	<rect x="1488.01" y="1332.643" fill="#C98973" width="2.26" height="67.832"/>
</g>
<g>
	<rect x="1771.024" y="1332.643" fill="#C98973" width="2.26" height="67.832"/>
</g>
<g>
	<rect x="2054.04" y="1332.643" fill="#C98973" width="2.26" height="67.832"/>
</g>
<g>
	<rect x="2337.055" y="1332.643" fill="#C98973" width="2.26" height="67.832"/>
</g>
<g>
	<rect x="2620.07" y="1332.643" fill="#C98973" width="2.26" height="67.832"/>
</g>
<g>
	<rect x="2903.084" y="1332.643" fill="#C98973" width="2.26" height="67.832"/>
</g>
<g>
	<rect x="3186.099" y="1332.643" fill="#C98973" width="2.26" height="67.832"/>
</g>
<g>
	<rect x="3469.115" y="1332.643" fill="#C98973" width="2.26" height="67.832"/>
</g>
<g>
	<rect x="356.054" y="1457.469" fill="#C98973" width="2.053" height="55.966"/>
</g>
<g>
	<rect x="211.266" y="1515.301" fill="#C98973" width="2.128" height="60.141"/>
</g>
<g>
	<rect x="497.524" y="1515.301" fill="#C98973" width="2.128" height="60.141"/>
</g>
<g>
	<rect x="783.782" y="1515.301" fill="#C98973" width="2.128" height="60.141"/>
</g>
<g>
	<rect x="1070.04" y="1515.301" fill="#C98973" width="2.128" height="60.141"/>
</g>
<g>
	<rect x="1356.298" y="1515.301" fill="#C98973" width="2.128" height="60.141"/>
</g>
<g>
	<rect x="1642.557" y="1515.301" fill="#C98973" width="2.128" height="60.141"/>
</g>
<g>
	<rect x="1928.815" y="1515.301" fill="#C98973" width="2.128" height="60.141"/>
</g>
<g>
	<rect x="2215.073" y="1515.301" fill="#C98973" width="2.128" height="60.141"/>
</g>
<g>
	<rect x="2501.331" y="1515.301" fill="#C98973" width="2.128" height="60.141"/>
</g>
<g>
	<rect x="2787.59" y="1515.301" fill="#C98973" width="2.128" height="60.141"/>
</g>
<g>
	<rect x="3073.848" y="1515.301" fill="#C98973" width="2.128" height="60.141"/>
</g>
<g>
	<rect x="3360.106" y="1515.301" fill="#C98973" width="2.128" height="60.141"/>
</g>
<g>
	<rect x="3646.364" y="1515.301" fill="#C98973" width="2.128" height="60.141"/>
</g>
<g>
	<rect x="639.068" y="1457.469" fill="#C98973" width="2.053" height="55.966"/>
</g>
<g>
	<rect x="922.084" y="1457.469" fill="#C98973" width="2.053" height="55.966"/>
</g>
<g>
	<rect x="1205.099" y="1457.469" fill="#C98973" width="2.053" height="55.966"/>
</g>
<g>
	<rect x="1488.113" y="1457.469" fill="#C98973" width="2.053" height="55.966"/>
</g>
<g>
	<rect x="1771.128" y="1457.469" fill="#C98973" width="2.053" height="55.966"/>
</g>
<g>
	<rect x="2054.144" y="1457.469" fill="#C98973" width="2.053" height="55.966"/>
</g>
<g>
	<rect x="2337.159" y="1457.469" fill="#C98973" width="2.053" height="55.966"/>
</g>
<g>
	<rect x="2620.173" y="1457.469" fill="#C98973" width="2.053" height="55.966"/>
</g>
<g>
	<rect x="2903.188" y="1457.469" fill="#C98973" width="2.053" height="55.966"/>
</g>
<g>
	<rect x="3186.203" y="1457.469" fill="#C98973" width="2.053" height="55.966"/>
</g>
<g>
	<rect x="3469.219" y="1458.402" fill="#C98973" width="2.053" height="55.966"/>
</g>
<g>
	<rect x="356.03" y="1575.639" fill="#C98973" width="2.099" height="58.524"/>
</g>
<g>
	<rect x="639.045" y="1575.639" fill="#C98973" width="2.099" height="58.524"/>
</g>
<g>
	<rect x="922.061" y="1575.639" fill="#C98973" width="2.099" height="58.524"/>
</g>
<g>
	<rect x="1205.076" y="1575.639" fill="#C98973" width="2.099" height="58.524"/>
</g>
<g>
	<rect x="1488.09" y="1575.639" fill="#C98973" width="2.099" height="58.524"/>
</g>
<g>
	<rect x="1771.105" y="1575.639" fill="#C98973" width="2.099" height="58.524"/>
</g>
<g>
	<rect x="2054.121" y="1575.639" fill="#C98973" width="2.099" height="58.524"/>
</g>
<g>
	<rect x="2337.135" y="1575.639" fill="#C98973" width="2.099" height="58.524"/>
</g>
<g>
	<rect x="2620.15" y="1575.639" fill="#C98973" width="2.099" height="58.524"/>
</g>
<g>
	<rect x="2903.165" y="1575.639" fill="#C98973" width="2.099" height="58.524"/>
</g>
<g>
	<rect x="3186.179" y="1575.639" fill="#C98973" width="2.099" height="58.524"/>
</g>
<g>
	<rect x="3469.195" y="1576.614" fill="#C98973" width="2.099" height="58.524"/>
</g>
<g>
	<path fill="#FFFFFF" d="M3467.508,449.347c-50.821,0-92.167-41.346-92.167-92.167s41.345-92.168,92.167-92.168
		c50.821,0,92.167,41.347,92.167,92.168S3518.329,449.347,3467.508,449.347z M3467.508,270.663
		c-47.706,0-86.516,38.812-86.516,86.517s38.811,86.516,86.516,86.516c47.706,0,86.516-38.811,86.516-86.516
		S3515.214,270.663,3467.508,270.663z"/>
</g>
<g>
	<polygon fill="#FFFFFF" points="3470.333,360.005 3422.176,360.005 3422.176,354.355 3464.683,354.355 3464.683,289.569 
		3470.333,289.569 	"/>
</g>
<g>
	<rect x="90.464" y="588.608" fill="#FFFFFF" width="123.046" height="146.009"/>
</g>
<g>
	<path fill="#767A95" d="M216.9,738.007H87.073v-152.79H216.9V738.007z M93.854,731.227h116.265V591.998H93.854V731.227z"/>
</g>
<g>
	
		<rect x="114.22" y="635.326" transform="matrix(-1.836970e-16 1 -1 -1.836970e-16 813.5991 509.6252)" fill="#C3CEEA" width="75.534" height="52.571"/>
</g>
<g>
	<g>
		<rect x="720.099" y="155.823" fill="#FFFFFF" width="2307.69" height="1051.234"/>
	</g>
	<g>
		<path fill="#D2CBAD" d="M2075.242,1030.47c-49.759-19.672-105.965-11.397-151.042,17.715
			c14.229-19.049,26.309-40.279,31.485-63.626c5.177-23.346,2.856-49.076-9.873-69.196c-8.756-13.839-21.931-24.365-36.332-31.844
			c-23.002-11.947-49.926-16.511-75.196-11.11c-25.27,5.401-45.64,20.712-59.05,43.183c-22.46-28.581-55.814-47.199-90.938-54.981
			c-35.124-7.781-71.931-5.248-106.865,3.378c-17.025,4.204-33.786,9.868-49.292,18.169c-35.525,19.017-63.542,52.124-76.767,90.713
			c-13.225,38.588-15.226,81.772,0.963,119.17c-15.478-25.365-44.323-42.552-73.599-40.845
			c-29.276,1.707-57.076,23.894-63.022,53.137c-2.101,10.335-1.609,21.057-0.104,31.5c3.688,25.59,13.556,50.209,28.349,71.225
			h797.88c8.093-15.617,13.827-32.195,15.501-49.805C2162.486,1103.148,2125.001,1050.142,2075.242,1030.47z"/>
	</g>
	<g>
		<path fill="#96A17A" d="M1041.185,1125.908c-0.149-15.558-17.284-24.519-32.101-28.313c-64.242-16.452-128.713-4.72-193.555,9.075
			c55.483-15.215,108.777-38.683,157.666-69.429c46.198-29.053,90.2-66.982,109.664-118.602c3.561-9.443,6.274-19.621,4.673-29.604
			c-3.79-23.631-29.481-36.624-52.738-40.135c-31.86-4.81-64.655,0.912-94.809,12.44c-70.234,26.85-123.368,80.687-175.927,135.201
			c36.115-47.363,73.209-96.778,86.236-155.258c3.028-13.593,3.078-31.058-8.916-37.773c-4.096-2.293-8.923-2.799-13.597-2.799
			c-23.617-0.001-46.177,11.912-63.07,28.718c-16.894,16.806-28.706,38.195-38.399,60.126c-2.168,4.906-4.236,9.858-6.213,14.846
			v302.657h195.804c37.381-13.774,73.475-30.429,105.948-53.61C1031.309,1146.697,1041.297,1137.67,1041.185,1125.908z"/>
	</g>
	<g>
		<path fill="#96A17A" d="M3001.563,787.157c-10.262,1.914-18.908,8.979-25.831,16.928c-29.243,33.579-33.328,82.297-32.809,127.177
			c0.708,61.191,7.589,123.721,19.93,183.612c-7.556-25.9-19.668-49.194-31.317-73.469
			c-15.945-33.229-51.391-109.324-120.385-168.54c-10.327-8.863-21.542-17.022-34.299-21.536
			c-12.757-4.513-27.446-4.904-39.321,1.646c-17.258,9.519-24.648,31.051-25.802,51.004c-2.938,50.807,24.398,98.099,54.386,138.813
			c27.143,36.852,55.8,75.28,88.542,107.066c-43.04-37.423-89.035-71.32-137.395-101.256
			c-19.794-12.253-41.072-24.167-64.229-24.719c-23.157-0.553-48.302,14.143-51.935,37.441
			c-2.238,14.355,3.898,28.782,12.009,40.741c20.459,30.166,53.001,49.338,85.635,64.814
			c34.799,16.503,70.991,29.952,108.041,40.178h221.005V790.836c-0.47-0.169-0.938-0.347-1.41-0.51
			C3018.395,787.572,3009.854,785.611,3001.563,787.157z"/>
	</g>
	<g>
		<rect x="720.099" y="1159.021" fill="#DBA893" width="2307.69" height="48.037"/>
	</g>
	<g>
		<g>
			<path fill="#7F5454" d="M3031.399,1210.734H716.489V152.147h2314.91V1210.734z M723.709,1203.382h2300.47V159.5H723.709V1203.382
				z"/>
		</g>
	</g>
	<g>
		<g>
			<rect x="1183.35" y="155.823" fill="#7F5454" width="7.22" height="1051.235"/>
		</g>
	</g>
	<g>
		<g>
			<rect x="1645.152" y="155.823" fill="#7F5454" width="7.22" height="1051.235"/>
		</g>
	</g>
	<g>
		<g>
			<rect x="2113.271" y="155.823" fill="#7F5454" width="7.22" height="1051.235"/>
		</g>
	</g>
	<g>
		<g>
			<rect x="2575.073" y="155.823" fill="#7F5454" width="7.22" height="1051.235"/>
		</g>
	</g>
	<g>
		<g>
			<rect x="720.099" y="290.027" fill="#7F5454" width="2307.69" height="7.352"/>
		</g>
	</g>
	<g opacity="0.25">
		<polygon fill="#FFFFFF" points="1107.922,155.823 720.099,1036.62 720.099,1207.058 994.882,1207.058 1506.191,155.823 		"/>
	</g>
	<g opacity="0.25">
		<polygon fill="#FFFFFF" points="1935.052,155.823 1478.927,1207.058 1664.311,1207.058 2100.628,155.823 		"/>
	</g>
	<g opacity="0.25">
		<polygon fill="#FFFFFF" points="2235.701,155.823 1808.641,1207.058 2389.643,1207.058 2746.215,155.823 		"/>
	</g>
	<g opacity="0.25">
		<polygon fill="#FFFFFF" points="2926.623,155.823 2587.668,1207.058 2705.456,1207.058 3026.835,155.823 		"/>
	</g>
</g>
<g>
	<rect x="711.622" y="152.147" fill="#767A94" width="2327.145" height="39.35"/>
</g>
<g>
	<rect x="1645.152" y="191.498" fill="#A3AECE" width="475.339" height="21.226"/>
</g>
<g>
	<rect x="1645.152" y="220.389" fill="#A3AECE" width="475.339" height="21.226"/>
</g>
<g>
	<rect x="1645.152" y="249.28" fill="#A3AECE" width="475.339" height="21.226"/>
</g>
<g>
	<rect x="1645.152" y="278.171" fill="#A3AECE" width="475.339" height="21.226"/>
</g>
<g>
	<rect x="1645.152" y="307.062" fill="#A3AECE" width="475.339" height="21.226"/>
</g>
<g>
	<rect x="1645.152" y="335.953" fill="#A3AECE" width="475.339" height="21.226"/>
</g>
<g>
	<rect x="1645.152" y="364.845" fill="#A3AECE" width="475.339" height="21.226"/>
</g>
<g>
	<rect x="2111.047" y="191.498" fill="#A3AECE" width="475.339" height="21.226"/>
</g>
<g>
	<rect x="2111.047" y="220.389" fill="#A3AECE" width="475.339" height="21.226"/>
</g>
<g>
	<rect x="2111.047" y="249.28" fill="#A3AECE" width="475.339" height="21.226"/>
</g>
<g>
	<rect x="2111.047" y="278.171" fill="#A3AECE" width="475.339" height="21.226"/>
</g>
<g>
	<rect x="2111.047" y="307.062" fill="#A3AECE" width="475.339" height="21.226"/>
</g>
<g>
	<rect x="2111.047" y="335.953" fill="#A3AECE" width="475.339" height="21.226"/>
</g>
<g>
	<rect x="2111.047" y="364.845" fill="#A3AECE" width="475.339" height="21.226"/>
</g>
<g>
	<rect x="2563.428" y="191.498" fill="#A3AECE" width="475.339" height="21.226"/>
</g>
<g>
	<rect x="2563.428" y="220.389" fill="#A3AECE" width="475.339" height="21.226"/>
</g>
<g>
	<rect x="2563.428" y="249.28" fill="#A3AECE" width="475.339" height="21.226"/>
</g>
<g>
	<rect x="2563.428" y="278.171" fill="#A3AECE" width="475.339" height="21.226"/>
</g>
<g>
	<rect x="1183.35" y="191.498" fill="#A3AECE" width="475.339" height="21.226"/>
</g>
<g>
	<rect x="1183.35" y="220.389" fill="#A3AECE" width="475.339" height="21.226"/>
</g>
<g>
	<rect x="711.622" y="191.498" fill="#A3AECE" width="475.339" height="21.226"/>
</g>
<g>
	<rect x="711.622" y="220.389" fill="#A3AECE" width="475.339" height="21.226"/>
</g>
<g>
	<rect x="1183.35" y="249.28" fill="#A3AECE" width="475.339" height="21.226"/>
</g>
<g>
	<g>
		<rect x="171.484" y="254.598" fill="#FFFFFF" width="221.593" height="262.946"/>
	</g>
	<g>
		
			<rect x="205.266" y="329.733" transform="matrix(-1.836970e-16 1 -1 -1.836970e-16 668.3506 103.7908)" fill="#C3CEEA" width="154.028" height="112.675"/>
	</g>
	<g>
		<path fill="#767A95" d="M396.467,520.934H168.093V251.208h228.374V520.934z M174.874,514.153h214.813V257.988H174.874V514.153z"/>
	</g>
	<g>
		<circle fill="#FBE3D7" cx="256.038" cy="444.873" r="52.496"/>
	</g>
	<g>
		<circle fill="#FBE3D7" cx="330.933" cy="338.328" r="26.291"/>
	</g>
	<g>
		<rect x="220.669" y="460.277" fill="#FBE3D7" width="151.043" height="15.036"/>
	</g>
	<g>
		
			<rect x="157.491" y="337.329" transform="matrix(-1.836970e-16 1 -1 -1.836970e-16 577.8594 111.8342)" fill="#FBE3D7" width="151.043" height="15.036"/>
	</g>
</g>
<rect x="316.488" y="1272.253" fill="#E5C8BA" width="3153.756" height="361.91"/>
<rect x="714.805" y="1206.857" opacity="0.1" fill="#FFFFFF" width="2308.736" height="427.306"/>
<g opacity="0.53">
	<rect x="327.968" y="1471.57" fill="#020202" width="1276.061" height="29.356"/>
</g>
<g>
	<g>
		<g>
			<g>
				<polygon fill="#5B6284" points="833.058,1238.063 818.015,1233.016 743.489,1471.57 760.109,1471.57 				"/>
			</g>
		</g>
		<g>
			<g>
				<polygon fill="#5B6284" points="918.323,1233.016 903.279,1238.063 976.225,1471.57 992.845,1471.57 				"/>
			</g>
		</g>
		<g>
			<g>
				<rect x="797.784" y="1316.175" fill="#5B6284" width="140.769" height="16.396"/>
			</g>
		</g>
		<g>
			<g>
				<path fill="#767A95" d="M876.612,950.285c-27.644-3.233-45.036,4.558-57.247,9.723c-6.69,2.83-15.422,6.587-25.684,14.077
					c-15.795,11.524-25.089,24.504-30.016,31.499c-0.79,1.124-1.605,2.312-2.438,3.568c-9.863,14.875-21.183,24.581-42.638,29.497
					c-20.249,4.638-39.476,5.724-48.686,8.152c11.656,2.569,23.312,5.138,34.968,7.707v92.156
					c4.732,11.744,9.416,21.286,14.084,30.049h157.657V950.285z"/>
			</g>
			<g>
				<path fill="#5B6284" d="M718.955,1176.713c9.898,18.583,19.72,33.635,29.753,58.532c70.551-15.947,57.353,8.487,127.904-7.458
					v-51.074H718.955z"/>
			</g>
			<g>
				<path fill="#767A95" d="M1023.048,1146.664v-92.156c11.656-2.569,23.311-5.138,34.967-7.707
					c-12.252-2.509-31.152-5.533-48.548-8.152c-16.749-2.522-32.913-14.622-42.776-29.497c-0.833-1.256-1.648-2.444-2.438-3.568
					c-4.927-6.995-14.221-19.975-30.016-31.499c-10.262-7.49-20.403-14.373-27.094-17.203c-12.211-5.165-27.644-8.937-47.792-6.048
					l-6.562,225.879h156.174C1013.631,1167.95,1018.316,1158.408,1023.048,1146.664z"/>
			</g>
			<g>
				<path fill="#5B6284" d="M852.79,1176.713l-1.484,51.074c70.551,15.945,57.352-8.489,127.903,7.458
					c10.034-24.897,19.856-39.949,29.754-58.532H852.79z"/>
			</g>
			<g>
				<path fill="#97A0BF" d="M859.352,1217.038c46.107,0,67.884,0.101,88.524-3.427c30.922-5.285,43.918-13.998,50.107-26.398
					c3.304-6.62,3.684-12.843,3.713-16.084c0.825-27.48,1.651-54.958,2.476-82.438c0.132-4.72,0.948-11.814,4.332-19.436
					c1.664-3.748,5.537-12.193,14.234-18.096c4.884-3.315,9.236-4.432,12.996-5.363c5.066-1.251,14.002-2.644,25.375,0
					c0.439,0.104,3.915,0.995,5.57,4.692c1.96,4.379-0.503,8.525-0.619,8.713c-7.15,1.689-13,3.688-17.329,5.362
					c-6.964,2.693-9.291,4.279-11.14,6.702c-3.014,3.951-3.608,8.622-3.713,11.394c0,3.574,0,7.149,0,10.723
					c0,25.692,0,51.383,0,77.075c0.205,6.54-0.231,17.027-4.332,28.82c-2.474,7.114-5.342,11.998-6.189,13.404
					c-8.919,14.816-21.107,21.754-26.612,24.797c-9.281,5.128-17.407,6.975-22.28,8.044c-7.06,1.549-12.594,1.87-15.472,2.01
					c-14.198,0.696-50.882,2.967-99.641,3.016C859.352,1240.496,859.352,1227.091,859.352,1217.038z"/>
			</g>
			<g>
				<path fill="#97A0BF" d="M868.566,1217.038c-46.107,0-67.884,0.101-88.524-3.427c-30.921-5.285-43.918-13.998-50.107-26.398
					c-3.304-6.62-3.684-12.843-3.713-16.084c-0.825-27.48-1.651-54.958-2.476-82.438c-0.132-4.72-0.949-11.814-4.332-19.436
					c-1.664-3.748-5.537-12.193-14.234-18.096c-4.884-3.315-9.236-4.432-12.996-5.363c-5.065-1.251-14.002-2.644-25.375,0
					c-0.439,0.104-3.915,0.995-5.57,4.692c-1.96,4.379,0.503,8.525,0.619,8.713c7.15,1.689,13,3.688,17.329,5.362
					c6.964,2.693,9.291,4.279,11.14,6.702c3.014,3.951,3.608,8.622,3.713,11.394c0,3.574,0,7.149,0,10.723
					c0,25.692,0,51.383,0,77.075c-0.204,6.54,0.231,17.027,4.332,28.82c2.474,7.114,5.342,11.998,6.189,13.404
					c8.919,14.816,21.106,21.754,26.612,24.797c9.281,5.128,17.406,6.975,22.28,8.044c7.06,1.549,12.594,1.87,15.472,2.01
					c14.198,0.696,50.882,2.967,99.641,3.016C868.566,1240.496,868.566,1227.091,868.566,1217.038z"/>
			</g>
			<g>
				<path fill="#767A95" d="M1023.312,1043.116c-3.734-1.365-9.943-4.3-14.853-10.723c-4.586-5.998-5.985-12.352-6.808-16.755
					c-0.896-4.792-1.656-10.579-2.3-16.785c-3.405-32.819-29.103-57.61-59.599-57.61h-71.186h-1.626h-71.185
					c-30.496,0-56.195,24.791-59.599,57.61c-0.644,6.206-1.405,11.994-2.3,16.785c-0.823,4.402-2.222,10.757-6.808,16.755
					c-4.911,6.423-11.12,9.358-14.853,10.723H1023.312z"/>
			</g>
		</g>
	</g>
	<g>
		<rect x="507.798" y="1097.54" fill="#634242" width="23.007" height="70.554"/>
	</g>
	<g>
		<rect x="1390.194" y="1100.608" fill="#634242" width="23.007" height="70.554"/>
	</g>
	<g>
		<rect x="269.976" y="1089.871" fill="#7F5454" width="1374.272" height="24.541"/>
	</g>
	<g>
		<rect x="380.409" y="1143.916" fill="#A3706F" width="273.014" height="281.101"/>
	</g>
	<g>
		<g>
			<rect x="380.409" y="1331.847" fill="#634242" width="273.014" height="2.677"/>
		</g>
		<g>
			<rect x="380.409" y="1238.286" fill="#634242" width="273.014" height="2.677"/>
		</g>
		<g opacity="0.33">
			<rect x="380.409" y="1240.883" fill="#F7F7F7" width="273.014" height="2.677"/>
		</g>
		<g opacity="0.33">
			<rect x="380.409" y="1334.443" fill="#F7F7F7" width="273.014" height="2.677"/>
		</g>
	</g>
	<g>
		
			<ellipse transform="matrix(0.1553 -0.9879 0.9879 0.1553 -738.2147 1522.7245)" fill="#634242" cx="521.304" cy="1193.032" rx="8.819" ry="8.819"/>
	</g>
	<g>
		
			<ellipse transform="matrix(0.9953 -0.0966 0.0966 0.9953 -121.9917 56.398)" fill="#634242" cx="521.304" cy="1287.744" rx="8.819" ry="8.819"/>
	</g>
	<g>
		<circle fill="#634242" cx="521.304" cy="1379.778" r="8.819"/>
	</g>
	<g>
		<rect x="412.448" y="1425.017" fill="#634242" width="23.007" height="75.909"/>
	</g>
	<g>
		<rect x="603.149" y="1425.017" fill="#634242" width="23.007" height="75.909"/>
	</g>
	<g>
		<rect x="1260.802" y="1143.916" fill="#A3706F" width="273.014" height="281.101"/>
	</g>
	<g>
		
			<ellipse transform="matrix(0.2298 -0.9732 0.9732 0.2298 -81.4632 2283.1321)" fill="#634242" cx="1401.697" cy="1193.032" rx="8.819" ry="8.819"/>
	</g>
	<g>
		
			<ellipse transform="matrix(0.9925 -0.1222 0.1222 0.9925 -146.8371 180.9102)" fill="#634242" cx="1401.697" cy="1287.744" rx="8.819" ry="8.819"/>
	</g>
	<g>
		<circle fill="#634242" cx="1401.697" cy="1379.778" r="8.819"/>
	</g>
	<g>
		<rect x="1292.841" y="1425.017" fill="#634242" width="23.007" height="75.909"/>
	</g>
	<g>
		<rect x="1483.542" y="1425.017" fill="#634242" width="23.007" height="75.909"/>
	</g>
	<g>
		<rect x="269.976" y="1061.294" fill="#B28D8D" width="1374.272" height="28.578"/>
	</g>
	<g>
		<rect x="500.044" y="1020.366" fill="#F4D4D0" width="21.26" height="55.216"/>
	</g>
	<g>
		<polygon fill="#2D3D60" points="940.267,926.963 1228.789,926.963 1205.163,1071.651 963.693,1071.651 		"/>
	</g>
	<g>
		<g>
			<path fill="#B54642" d="M1468.085,1067.894H1346.66c0-13.38,10.846-24.225,24.225-24.225h72.975
				C1457.238,1043.669,1468.085,1054.514,1468.085,1067.894z"/>
		</g>
		<g>
			<g>
				<path fill="#B54642" d="M1415.445,1055.78h-14.803V888.248l-146.006-86.075l0,0c4.562-7.662,14.471-10.176,22.134-5.616
					l138.675,82.517V1055.78z"/>
			</g>
		</g>
		<g>
			<path fill="#B54642" d="M1368.565,868.399l-113.93-66.226l0,0c-6.088,7.094-4.305,17.964,3.73,22.741l87.745,52.172
				c7.442,4.425,17.073,1.675,21.057-6.011L1368.565,868.399z"/>
		</g>
	</g>
	<g>
		<g>
			<path fill="#506B42" d="M410.265,1027.672c-5.114-22.247-14.255-42.894-27.155-61.352c-22.53-32.245-51.277-50.068-71.419-59.339
				l2.465-5.344c20.8,9.577,50.489,27.989,73.777,61.314c13.336,19.086,22.776,40.414,28.058,63.404L410.265,1027.672z"/>
		</g>
	</g>
	<g>
		<g>
			<path fill="#506B42" d="M433.875,1038.567l-5.696-1.47c8.635-33.601,21.344-66.145,37.773-96.721
				c16.689-31.059,37.183-60.028,60.931-86.11l4.348,3.966c-23.419,25.723-43.645,54.294-60.104,84.931
				C454.92,973.318,442.388,1005.418,433.875,1038.567z"/>
		</g>
	</g>
	<g>
		<g>
			<path fill="#506B42" d="M481.381,1059.759l-5.834-0.75c1.523-11.927,2.212-35.606-10.274-60.135
				c-15.885-31.181-43.338-44.816-54.401-49.226l2.174-5.466c11.682,4.662,40.674,19.062,57.463,52.028
				C483.716,1022.14,482.989,1047.15,481.381,1059.759z"/>
		</g>
	</g>
	<g>
		<path fill="#506B42" d="M265.652,892.211c0.816-2.997,14.287-1.94,30.089,2.362c15.802,4.302,27.951,10.218,27.135,13.215
			c-0.816,2.997-14.287,1.939-30.089-2.362C276.985,901.124,264.836,895.208,265.652,892.211z"/>
	</g>
	<g>
		<path fill="#506B42" d="M281.945,928.57c-0.453-3.073,12.313-7.501,28.515-9.891c16.202-2.39,29.703-1.837,30.156,1.236
			c0.453,3.073-12.313,7.501-28.515,9.891C295.9,932.196,282.399,931.643,281.945,928.57z"/>
	</g>
	<g>
		<path fill="#506B42" d="M320.52,861.713c2.935-1.017,9.66,10.704,15.021,26.178c5.361,15.475,7.328,28.844,4.393,29.86
			c-2.935,1.017-9.66-10.704-15.021-26.178C319.552,876.099,317.585,862.73,320.52,861.713z"/>
	</g>
	<g>
		<path fill="#506B42" d="M366.177,872.651c3.075,0.437,3.7,13.936,1.395,30.15c-2.305,16.214-6.666,29.004-9.741,28.567
			c-3.075-0.437-3.7-13.935-1.395-30.15C358.74,885.004,363.102,872.214,366.177,872.651z"/>
	</g>
	<g>
		<path fill="#506B42" d="M405.932,897.068c2.56,1.758-2.88,14.128-12.151,27.628c-9.271,13.5-18.862,23.019-21.423,21.261
			c-2.56-1.758,2.88-14.128,12.151-27.628C393.78,904.828,403.372,895.31,405.932,897.068z"/>
	</g>
	<g>
		<path fill="#506B42" d="M433.168,928.506c2.048,2.335-6.274,12.982-18.587,23.779c-12.313,10.798-23.955,17.658-26.003,15.322
			c-2.048-2.335,6.274-12.982,18.587-23.779C419.478,933.031,431.12,926.171,433.168,928.506z"/>
	</g>
	<g>
		<path fill="#506B42" d="M570.442,820.374c2.048,2.335-6.274,12.982-18.587,23.779c-12.313,10.797-23.955,17.658-26.003,15.322
			c-2.048-2.335,6.274-12.982,18.587-23.779C556.752,824.899,568.394,818.039,570.442,820.374z"/>
	</g>
	<g>
		<path fill="#506B42" d="M570.974,864.53c0.579,3.052-11.996,7.999-28.086,11.051c-16.09,3.052-29.603,3.052-30.182,0
			c-0.579-3.052,11.996-7.999,28.086-11.051C556.882,861.478,570.395,861.478,570.974,864.53z"/>
	</g>
	<g>
		<path fill="#506B42" d="M511.913,873.498c-3.052,0.579-7.999-11.996-11.051-28.086c-3.052-16.09-3.052-29.603,0-30.182
			c3.052-0.579,7.999,11.996,11.051,28.086C514.964,859.407,514.964,872.92,511.913,873.498z"/>
	</g>
	<g>
		<path fill="#506B42" d="M497.886,894.813c-2.69,1.553-11.508-8.686-19.697-22.869c-8.189-14.183-12.646-26.939-9.956-28.492
			c2.69-1.553,11.509,8.685,19.697,22.869C496.119,880.503,500.576,893.26,497.886,894.813z"/>
	</g>
	<g>
		<path fill="#506B42" d="M484.128,914.511c-1.929,2.434-13.898-3.839-26.732-14.011c-12.835-10.172-21.675-20.392-19.746-22.826
			c1.929-2.434,13.898,3.839,26.733,14.011C477.217,901.857,486.058,912.076,484.128,914.511z"/>
	</g>
	<g>
		<path fill="#506B42" d="M470.4,933.203c-1.553,2.69-14.309-1.768-28.492-9.956c-14.183-8.188-24.421-17.007-22.868-19.697
			c1.553-2.69,14.309,1.768,28.492,9.956C461.714,921.695,471.953,930.513,470.4,933.203z"/>
	</g>
	<g>
		<path fill="#506B42" d="M557.39,901.198c-0.294,3.092-13.75,4.34-30.053,2.787c-16.303-1.553-29.281-5.318-28.987-8.41
			c0.294-3.092,13.75-4.34,30.053-2.787C544.707,894.341,557.685,898.106,557.39,901.198z"/>
	</g>
	<g>
		<path fill="#506B42" d="M542.9,931.444c-0.816,2.997-14.287,1.939-30.089-2.362c-15.802-4.301-27.951-10.218-27.135-13.215
			c0.816-2.997,14.287-1.94,30.089,2.362C531.567,922.53,543.716,928.447,542.9,931.444z"/>
	</g>
	<g>
		<path fill="#506B42" d="M526.518,961.414c-1.399,2.773-14.386-0.96-29.008-8.337c-14.621-7.377-25.34-15.605-23.941-18.379
			c1.399-2.773,14.386,0.96,29.008,8.337S527.918,958.641,526.518,961.414z"/>
	</g>
	<g>
		<path fill="#506B42" d="M300.522,955.409c-1.176-2.875,10.159-10.232,25.316-16.432c15.158-6.201,28.399-8.897,29.575-6.022
			c1.176,2.875-10.159,10.232-25.316,16.432C314.939,955.588,301.698,958.284,300.522,955.409z"/>
	</g>
	<g>
		<path fill="#506B42" d="M319.926,977.477c-1.553-2.69,8.686-11.509,22.868-19.697c14.183-8.189,26.939-12.646,28.492-9.956
			c1.553,2.69-8.686,11.508-22.868,19.697C334.235,975.709,321.479,980.167,319.926,977.477z"/>
	</g>
	<g>
		<path fill="#506B42" d="M338.542,1003.967c-1.9-2.457,7.065-12.569,20.022-22.585c12.957-10.016,25.001-16.143,26.901-13.686
			c1.899,2.458-7.065,12.569-20.022,22.585C352.486,1000.297,340.442,1006.424,338.542,1003.967z"/>
	</g>
	<g>
		<rect x="362.004" y="1020.366" fill="#FFFFFF" width="138.041" height="55.216"/>
	</g>
	<g>
		
			<ellipse transform="matrix(0.1642 -0.9864 0.9864 0.1642 -86.9595 1910.2792)" fill="#3D5072" cx="1083.807" cy="1006.456" rx="20.921" ry="20.92"/>
	</g>
	<g>
		<g>
			<rect x="1260.802" y="1331.847" fill="#634242" width="273.014" height="2.677"/>
		</g>
		<g>
			<rect x="1260.802" y="1238.286" fill="#634242" width="273.014" height="2.677"/>
		</g>
		<g opacity="0.33">
			<rect x="1260.802" y="1240.883" fill="#F7F7F7" width="273.014" height="2.677"/>
		</g>
		<g opacity="0.33">
			<rect x="1260.802" y="1334.443" fill="#F7F7F7" width="273.014" height="2.677"/>
		</g>
	</g>
</g>
<g opacity="0.53">
	<rect x="1747.422" y="1324.838" fill="#020202" width="938.188" height="22.469"/>
</g>
<g>
	<g>
		<g>
			<g>
				
					<rect x="2054.439" y="1291.919" transform="matrix(-1 -1.224647e-16 1.224647e-16 -1 4131.9287 2615.9653)" fill="#A3706F" width="23.05" height="32.128"/>
			</g>
			<g>
				
					<rect x="2077.49" y="1291.919" transform="matrix(-1 -1.224647e-16 1.224647e-16 -1 4166.5039 2615.9653)" fill="#7F5454" width="11.525" height="32.128"/>
			</g>
		</g>
		<g>
			<path fill="#C3CEEA" d="M2291.064,1025.762c-0.976,15.322-1.97,18.202-2.942,37.53c-59.143,37.315-117.494,74.12-175.165,110.501
				l-1.256,133.891l-80.034,0.272c-10.547,0.577-19.415-7.819-19.415-18.381c0,0,0-118.782,0-120.453v-133.887
				c0-5.231,4.241-9.472,9.472-9.472H2291.064z"/>
		</g>
		<g>
			<path fill="#767A95" d="M2071.727,1037.131v131.989c0,1.671,0.368,3.256,1.019,4.728v128.677h99.686v-128.733
				c57.671-36.381,116.021-73.186,175.165-110.501c1.076-21.404,2.18-17.355,3.256-38.787l12.57-1.529l-280.597,2.859
				C2076.54,1026.515,2071.727,1031.441,2071.727,1037.131z"/>
		</g>
		<g>
			<path fill="#97A0BF" d="M2309.204,878.603h286.534c11.364,0,20.213,9.867,18.946,21.161
				c-7.91,70.459-43.779,195.626-56.117,236.718c-93.523-6.791-233.276-12.26-324.207-18.88c0,0-8.712-118.603,50.667-224.673
				C2289.946,884.143,2299.134,878.603,2309.204,878.603z"/>
		</g>
		<g>
			<path fill="#767A95" d="M2606.352,881.851l28.266,12.025c11.007,4.683,16.843,16.785,13.637,28.309
				c-18.498,66.495-40.484,144.899-47.908,213.717l-55.952-3.431C2544.395,1132.47,2541.146,995.59,2606.352,881.851z"/>
		</g>
		<g>
			<path fill="#C3CEEA" d="M2069.383,1118.172c-5.326,0.547-11.585,1.667-13.996,6.457c-0.987,1.961-1.108,4.204-1.211,6.374
				c-1.67,35.378-7.838,176.98-7.838,176.98l475.673-2.181v-190.729C2340.36,1114.915,2097.684,1115.267,2069.383,1118.172z"/>
		</g>
		<g>
			<g>
				<g>
					
						<rect x="2384.044" y="1291.919" transform="matrix(-1 -1.224647e-16 1.224647e-16 -1 4791.1377 2615.9653)" fill="#A3706F" width="23.05" height="32.128"/>
				</g>
				<g>
					
						<rect x="2407.094" y="1291.919" transform="matrix(-1 -1.224647e-16 1.224647e-16 -1 4825.7129 2615.9653)" fill="#7F5454" width="11.525" height="32.128"/>
				</g>
			</g>
			<g>
				<g>
					
						<rect x="2619.385" y="1291.919" transform="matrix(-1 -1.224647e-16 1.224647e-16 -1 5261.8188 2615.9653)" fill="#A3706F" width="23.05" height="32.128"/>
				</g>
				<g>
					
						<rect x="2642.435" y="1291.919" transform="matrix(-1 -1.224647e-16 1.224647e-16 -1 5296.394 2615.9653)" fill="#7F5454" width="11.525" height="32.128"/>
				</g>
			</g>
			<g>
				<path fill="#5B6284" d="M2663.848,1025.003l-308.779,1.823c-0.518,92.688-1.037,185.367-1.555,278.036
					c14.722,1.248,240.122-0.736,312.401-1.329c10.677-0.088,19.301-8.688,19.419-19.365c0.622-56.443,0.037-186.971-0.229-238.148
					C2685.044,1034.34,2675.527,1024.94,2663.848,1025.003z"/>
			</g>
			<g>
				<path fill="#C3CEEA" d="M2368.457,1026.753c-8.503,2.009-13.44,9.198-13.485,17.356l-1.458,260.752l-62.308,0.251
					c0,0-0.235-203.94-0.1-262.699c0.02-8.666,7.05-15.661,15.717-15.661H2368.457z"/>
			</g>
			<g>
				<path fill="#FFFFFF" d="M2292.267,1262.083h-2.123v-218.555c0-10.526,7.552-19.368,17.566-20.566l0.252,2.108
					c-8.947,1.071-15.695,9.005-15.695,18.458V1262.083z"/>
			</g>
			<g>
				
					<rect x="2402.544" y="1270.277" transform="matrix(1 -0.0062 0.0062 1 -7.8547 15.7056)" fill="#FFFFFF" width="239.792" height="2.123"/>
			</g>
		</g>
	</g>
	<g>
		<g>
			<ellipse fill="#634242" cx="1943.062" cy="1139.164" rx="217.065" ry="21.112"/>
		</g>
		<g>
			<g>
				<polygon fill="#634242" points="1769.766,1324.885 1756.726,1325.252 1834.8,1148.413 1846.71,1153.696 				"/>
			</g>
		</g>
		<g>
			<g>
				<polygon fill="#634242" points="2119.687,1324.885 2043.872,1153.696 2055.782,1148.413 2132.727,1325.252 				"/>
			</g>
		</g>
		<g>
			<g>
				<polygon fill="#634242" points="1887.92,1347.174 1875.194,1346.629 1912.928,1149.652 1925.653,1152.458 				"/>
			</g>
		</g>
		<g>
			<rect x="1725.996" y="1128.197" fill="#634242" width="8.248" height="10.967"/>
		</g>
		<g>
			<rect x="2151.51" y="1128.197" fill="#634242" width="8.249" height="10.967"/>
		</g>
		<g>
			<ellipse fill="#B28D8D" cx="1943.062" cy="1128.197" rx="217.065" ry="21.112"/>
		</g>
	</g>
	<g>
		<g>
			<g>
				<path fill="#FFFFFF" d="M1814.541,1131.827h14.556c21.109,0,38.221-17.112,38.221-38.221l0,0
					c0-25.128-20.371-36.197-45.499-36.197l0,0c-25.129,0-45.499,11.069-45.499,36.197l0,0
					C1776.32,1114.715,1793.432,1131.827,1814.541,1131.827z"/>
			</g>
		</g>
		<g>
			<g>
				<path fill="#FFFFFF" d="M1791.79,1121.774v-9.016c-3.235,0-21.187-6.601-30.431-17.573c-3.899-4.63-5.489-9.223-4.725-13.654
					c0.547-3.171,4.318-6.291,8.587-7.101c5.522-1.05,9.956,2.459,11.843,3.958c3.344,2.656,4.825,5.877,5.479,8.113l8.653-2.531
					c-1.021-3.489-3.328-8.514-8.524-12.641c-2.359-1.874-9.538-7.581-19.133-5.755c-8.096,1.538-14.589,7.47-15.788,14.427
					c-1.237,7.172,1.022,14.236,6.714,20.994C1764.75,1113.203,1784.828,1121.774,1791.79,1121.774z"/>
			</g>
		</g>
		<g>
			<g>
				<path fill="#FFFFFF" d="M1881.398,1066.572c-6.988,0.417-13.297,3.759-19.308,7.013c-2.662,1.441-5.392,2.936-7.268,5.172
					c-2.878,3.431-3.288,8.008-3.589,12.308c-0.334,4.779-0.669,9.558-1.003,14.337c-0.422,6.036-0.591,12.781,3.853,17.296
					c6.45-8.33,12.9-16.661,19.35-24.991c3.837-4.955,7.765-9.998,13.109-13.632c5.29-3.597,11.837-5.354,18.378-4.128
					C1908.116,1076.771,1891.729,1065.955,1881.398,1066.572z"/>
			</g>
		</g>
		<g>
			<g>
				<path fill="#FFFFFF" d="M1795.43,1065.932h52.779v-6.891c0-2.511-2.054-4.565-4.565-4.565h-43.649
					c-2.511,0-4.565,2.054-4.565,4.565V1065.932z"/>
			</g>
		</g>
		<g>
			<g>
				<circle fill="#FFFFFF" cx="1821.819" cy="1051.476" r="9.748"/>
			</g>
		</g>
	</g>
	<g>
		<g>
			<g>
				<path fill="#FFFFFF" d="M1991.394,1126.187L1991.394,1126.187c-11.52,0-20.859-9.339-20.859-20.859V1080h41.717v25.328
					C2012.253,1116.849,2002.914,1126.187,1991.394,1126.187z"/>
			</g>
		</g>
		<g>
			<g>
				<g>
					<path fill="#FFFFFF" d="M1971.204,1109.019c-6.567,0-11.909-5.348-11.909-11.92c0-6.572,5.342-11.919,11.909-11.919
						s11.909,5.346,11.909,11.919C1983.113,1103.67,1977.771,1109.019,1971.204,1109.019z M1970.862,1089.828
						c-4.093,0-7.421,3.261-7.421,7.271s3.328,7.272,7.421,7.272c4.093,0,7.421-3.263,7.421-7.272
						S1974.954,1089.828,1970.862,1089.828z"/>
				</g>
			</g>
		</g>
	</g>
</g>
<g>
	<g>
		<rect x="3131.524" y="858.706" fill="#B28D8D" width="546.063" height="34.065"/>
	</g>
	<g>
		<rect x="3131.524" y="722.343" fill="#B28D8D" width="546.063" height="34.065"/>
	</g>
	<g>
		<rect x="3131.524" y="1263.685" fill="#B28D8D" width="546.063" height="34.065"/>
	</g>
	<g>
		<rect x="3131.524" y="1130.268" fill="#B28D8D" width="546.063" height="34.065"/>
	</g>
	<g>
		<rect x="3131.524" y="992.98" fill="#B28D8D" width="546.063" height="34.065"/>
	</g>
	<g>
		<g>
			<rect x="3130.044" y="754.625" fill="#7F5454" width="546.845" height="13.372"/>
		</g>
	</g>
	<g>
		<g>
			<rect x="3130.044" y="890.406" fill="#7F5454" width="546.845" height="13.372"/>
		</g>
	</g>
	<g>
		<g>
			<rect x="3130.044" y="1026.187" fill="#7F5454" width="546.845" height="13.372"/>
		</g>
	</g>
	<g>
		<g>
			<rect x="3130.044" y="1161.969" fill="#7F5454" width="546.845" height="13.372"/>
		</g>
	</g>
	<g>
		<g>
			<rect x="3130.741" y="1297.75" fill="#7F5454" width="546.845" height="13.372"/>
		</g>
	</g>
	<g>
		<g>
			<g>
				
					<rect x="3393.192" y="786.651" transform="matrix(-1.836970e-16 1 -1 -1.836970e-16 4252.3857 -2548.5071)" fill="#B54642" width="14.509" height="130.577"/>
			</g>
		</g>
		<g>
			<g>
				
					<rect x="3374.15" y="800.183" transform="matrix(-1.836970e-16 1 -1 -1.836970e-16 4246.8755 -2515.9326)" fill="#5B6284" width="14.509" height="130.577"/>
			</g>
		</g>
	</g>
	<g>
		<g>
			<g>
				
					<rect x="3208.121" y="1058.214" transform="matrix(-1.836970e-16 1 -1 -1.836970e-16 4338.877 -2091.8726)" fill="#F4D4D0" width="14.509" height="130.577"/>
			</g>
		</g>
		<g>
			<g>
				
					<rect x="3189.078" y="1071.746" transform="matrix(-1.836970e-16 1 -1 -1.836970e-16 4333.3667 -2059.2981)" fill="#5B6284" width="14.509" height="130.577"/>
			</g>
		</g>
	</g>
	<g>
		<g>
			<polygon fill="#F4D4D0" points="3592.808,1103.583 3592.808,1151.321 3607.317,1151.321 3607.317,1099.772 3607.317,1071.228 
				3592.808,1071.228 			"/>
		</g>
		<g>
			<polygon fill="#F4D4D0" points="3609.735,1099.136 3609.735,1151.321 3624.243,1151.321 3624.243,1095.327 3624.243,1071.228 
				3609.735,1071.228 			"/>
		</g>
		<g>
			<polygon fill="#F4D4D0" points="3626.662,1094.694 3626.662,1151.321 3641.171,1151.321 3641.171,1090.9 3641.171,1071.228 
				3626.662,1071.228 			"/>
		</g>
		<g>
			<polygon fill="#F4D4D0" points="3643.588,1090.268 3643.588,1151.321 3658.097,1151.321 3658.097,1086.474 3658.097,1071.228 
				3643.588,1071.228 			"/>
		</g>
		<g>
			<polygon fill="#F4D4D0" points="3660.515,1071.228 3660.515,1085.842 3660.515,1151.321 3675.023,1151.321 3675.023,1082.054 
				3675.023,1071.228 			"/>
		</g>
	</g>
	<g>
		<g>
			<polygon fill="#D2CBAD" points="3510.928,694.298 3510.928,743.944 3629.858,743.944 3643.587,743.944 3643.587,694.298 
				3625.056,694.298 			"/>
		</g>
	</g>
	<g>
		<g>
			<polygon fill="#C3CEEA" points="3131.524,824.677 3131.524,876.714 3146.032,876.714 3146.032,820.523 3146.032,789.408 
				3131.524,789.408 			"/>
		</g>
		<g>
			<polygon fill="#C3CEEA" points="3148.45,819.83 3148.45,876.714 3162.959,876.714 3162.959,815.677 3162.959,789.408 
				3148.45,789.408 			"/>
		</g>
		<g>
			<polygon fill="#C3CEEA" points="3165.377,814.988 3165.377,876.714 3179.886,876.714 3179.886,810.852 3179.886,789.408 
				3165.377,789.408 			"/>
		</g>
		<g>
			<polygon fill="#C3CEEA" points="3182.303,810.163 3182.303,876.714 3196.812,876.714 3196.812,806.027 3196.812,789.408 
				3182.303,789.408 			"/>
		</g>
		<g>
			<polygon fill="#C3CEEA" points="3199.23,805.338 3199.23,876.714 3213.739,876.714 3213.739,801.209 3213.739,789.408 
				3199.23,789.408 			"/>
		</g>
		<g>
			<polygon fill="#C3CEEA" points="3232.3,795.966 3230.666,789.408 3216.157,789.408 3218.746,799.795 3237.92,876.714 
				3252.429,876.714 			"/>
		</g>
	</g>
	<g>
		<g>
			<polygon fill="#B54642" points="3553.748,1230.672 3553.748,1280.717 3568.256,1280.717 3568.256,1226.676 3568.256,1196.752 
				3553.748,1196.752 			"/>
		</g>
		<g>
			<polygon fill="#B54642" points="3570.674,1226.01 3570.674,1280.717 3585.183,1280.717 3585.183,1222.016 3585.183,1196.752 
				3570.674,1196.752 			"/>
		</g>
		<g>
			<polygon fill="#B54642" points="3587.601,1221.353 3587.601,1280.717 3602.11,1280.717 3602.11,1217.376 3602.11,1196.752 
				3587.601,1196.752 			"/>
		</g>
		<g>
			<polygon fill="#B54642" points="3604.527,1216.713 3604.527,1280.717 3619.036,1280.717 3619.036,1212.735 3619.036,1196.752 
				3604.527,1196.752 			"/>
		</g>
		<g>
			<polygon fill="#B54642" points="3621.455,1212.072 3621.455,1280.717 3635.963,1280.717 3635.963,1208.102 3635.963,1196.752 
				3621.455,1196.752 			"/>
		</g>
		<g>
			<polygon fill="#B54642" points="3654.525,1203.059 3652.89,1196.752 3638.381,1196.752 3640.97,1206.741 3660.144,1280.717 
				3674.653,1280.717 			"/>
		</g>
	</g>
	<g>
		<g>
			<g>
				<path fill="#B54642" d="M3275.708,634.157h-26.56v30.319c8.887-1.717,17.747-3.491,26.56-5.383V634.157z"/>
			</g>
		</g>
		<g>
			<g>
				<path fill="#B54642" d="M3249.147,664.476v79.468h26.56v-84.851C3266.894,660.985,3258.034,662.76,3249.147,664.476z"/>
			</g>
		</g>
		<g>
			<g>
				<path fill="#B54642" d="M3245.773,634.157h-26.56v35.474c8.87-1.646,17.729-3.299,26.56-5.001V634.157z"/>
			</g>
		</g>
		<g>
			<g>
				<path fill="#B54642" d="M3219.213,669.631v74.313h26.56V664.63C3236.942,666.332,3228.083,667.985,3219.213,669.631z"/>
			</g>
		</g>
		<g>
			<g>
				<path fill="#B54642" d="M3215.84,634.157h-26.561v40.623c8.854-1.702,17.71-3.361,26.561-5.004V634.157z"/>
			</g>
		</g>
		<g>
			<g>
				<path fill="#B54642" d="M3189.279,674.78v69.164h26.561v-74.168C3206.989,671.419,3198.133,673.078,3189.279,674.78z"/>
			</g>
		</g>
		<g>
			<g>
				<path fill="#B54642" d="M3185.906,634.157h-26.56v46.136c8.835-1.884,17.693-3.654,26.56-5.362V634.157z"/>
			</g>
		</g>
		<g>
			<g>
				<path fill="#B54642" d="M3159.346,680.294v63.651h26.56v-69.013C3177.039,676.639,3168.181,678.409,3159.346,680.294z"/>
			</g>
		</g>
		<g>
			<g>
				<path fill="#B54642" d="M3155.972,634.157h-26.561v52.416c8.816-2.198,17.677-4.206,26.561-6.109V634.157z"/>
			</g>
		</g>
		<g>
			<g>
				<path fill="#B54642" d="M3129.412,686.573v57.371h26.561v-63.479C3147.089,682.367,3138.228,684.375,3129.412,686.573z"/>
			</g>
		</g>
		<g>
			<g>
				
					<rect x="3256.103" y="653.326" transform="matrix(-1 -1.224647e-16 1.224647e-16 -1 6525.2749 1362.4177)" fill="#FFFFFF" width="13.07" height="55.765"/>
			</g>
		</g>
		<g>
			<g>
				
					<rect x="3226.064" y="653.326" transform="matrix(-1 -1.224647e-16 1.224647e-16 -1 6465.1973 1362.4177)" fill="#FFFFFF" width="13.07" height="55.765"/>
			</g>
		</g>
		<g>
			<g>
				
					<rect x="3196.025" y="653.326" transform="matrix(-1 -1.224647e-16 1.224647e-16 -1 6405.1191 1362.4177)" fill="#FFFFFF" width="13.07" height="55.765"/>
			</g>
		</g>
		<g>
			<g>
				
					<rect x="3165.986" y="653.326" transform="matrix(-1 -1.224647e-16 1.224647e-16 -1 6345.041 1362.4177)" fill="#FFFFFF" width="13.07" height="55.765"/>
			</g>
		</g>
		<g>
			<g>
				
					<rect x="3135.947" y="653.326" transform="matrix(-1 -1.224647e-16 1.224647e-16 -1 6284.9634 1362.4177)" fill="#FFFFFF" width="13.07" height="55.765"/>
			</g>
		</g>
		<g>
			<g>
				<path fill="#892E2E" d="M3256.103,723.904c0,3.609,2.926,6.535,6.535,6.535c3.609,0,6.535-2.926,6.535-6.535
					c0-3.609-2.926-6.535-6.535-6.535C3259.028,717.369,3256.103,720.295,3256.103,723.904z"/>
			</g>
		</g>
		<g>
			<g>
				<path fill="#892E2E" d="M3226.064,723.904c0,3.609,2.926,6.535,6.535,6.535c3.609,0,6.535-2.926,6.535-6.535
					c0-3.609-2.926-6.535-6.535-6.535C3228.99,717.369,3226.064,720.295,3226.064,723.904z"/>
			</g>
		</g>
		<g>
			<g>
				<path fill="#892E2E" d="M3196.025,723.904c0,3.609,2.926,6.535,6.535,6.535s6.535-2.926,6.535-6.535
					c0-3.609-2.926-6.535-6.535-6.535S3196.025,720.295,3196.025,723.904z"/>
			</g>
		</g>
		<g>
			<g>
				<path fill="#892E2E" d="M3165.986,723.904c0,3.609,2.926,6.535,6.535,6.535c3.609,0,6.535-2.926,6.535-6.535
					c0-3.609-2.926-6.535-6.535-6.535C3168.912,717.369,3165.986,720.295,3165.986,723.904z"/>
			</g>
		</g>
		<g>
			<g>
				<path fill="#892E2E" d="M3135.947,723.904c0,3.609,2.926,6.535,6.535,6.535s6.535-2.926,6.535-6.535
					c0-3.609-2.926-6.535-6.535-6.535S3135.947,720.295,3135.947,723.904z"/>
			</g>
		</g>
	</g>
	<g>
		<g>
			<g>
				<path fill="#FFFFFF" d="M3593.511,826.123h-50.51l3.119,27.037c16.199-7.118,31.982-13.639,46.686-20.926L3593.511,826.123z"/>
			</g>
		</g>
		<g>
			<g>
				<path fill="#FFFFFF" d="M3546.121,853.16l3.065,26.565h38.14l5.48-47.491C3578.102,839.521,3562.32,846.042,3546.121,853.16z"/>
			</g>
		</g>
		<g>
			<g>
				<path fill="#718A35" d="M3563.875,823.675c-2.313,1.255-6.984-2.161-9.277-5.798c-3.877-6.151-1.256-13.415-0.773-14.689
					c1.77,0.666,7.4,3.038,10.051,8.891C3565.735,816.186,3566.289,822.365,3563.875,823.675z"/>
			</g>
		</g>
		<g>
			<g>
				<path fill="#718A35" d="M3573.465,818.364c-2.523-0.748-3.411-6.467-2.46-10.66c1.608-7.091,8.598-10.374,9.84-10.934
					c0.781,1.722,3.085,7.381,0.82,13.393C3580.076,814.384,3576.098,819.144,3573.465,818.364z"/>
			</g>
		</g>
		<g>
			<g>
				<path fill="#718A35" d="M3567.021,801.469c-2.621,0.238-5.561-4.746-6.229-8.994c-1.129-7.183,4.15-12.819,5.097-13.798
					c1.363,1.311,5.596,5.716,5.716,12.14C3571.691,795.326,3569.756,801.221,3567.021,801.469z"/>
			</g>
		</g>
	</g>
	<g>
		<g>
			<rect x="3134.832" y="602.556" fill="#634242" width="551.395" height="11.16"/>
		</g>
	</g>
	<g>
		<g>
			<rect x="3676.191" y="612.787" fill="#634242" width="13.95" height="840.727"/>
		</g>
	</g>
	<g>
		<g>
			<g>
				<rect x="3130.741" y="935.5" fill="#FFFFFF" width="19.995" height="74.513"/>
			</g>
		</g>
		<g>
			<g>
				<rect x="3153.526" y="935.5" fill="#FFFFFF" width="19.995" height="74.513"/>
			</g>
		</g>
		<g>
			<g>
				<rect x="3176.312" y="935.5" fill="#FFFFFF" width="19.995" height="74.513"/>
			</g>
		</g>
		<g>
			<g>
				<rect x="3199.097" y="943.95" fill="#FFFFFF" width="19.995" height="66.063"/>
			</g>
		</g>
	</g>
	<g>
		<g>
			
				<rect x="3553.061" y="950.307" transform="matrix(-1.836970e-16 1 -1 -1.836970e-16 4558.4712 -2567.6458)" fill="#B54642" width="19.995" height="90.211"/>
		</g>
	</g>
	<g>
		<rect x="3130.044" y="1311.122" fill="#A3706F" width="546.148" height="142.392"/>
	</g>
	<g>
		<polygon fill="#634242" points="3130.741,1450.724 3130.741,613.716 3690.141,613.716 3690.141,602.556 3119.581,602.556 
			3119.581,1463.193 3690.152,1463.193 3690.152,1450.724 		"/>
	</g>
	<g>
		<path fill="#634242" d="M3410.291,1419.098c0,3.962-3.212,7.174-7.174,7.174s-7.174-3.212-7.174-7.174
			c0-3.962,3.212-7.174,7.174-7.174S3410.291,1415.136,3410.291,1419.098z"/>
	</g>
	<g>
		<path fill="#634242" d="M3410.291,1345.988c0,3.962-3.212,7.174-7.174,7.174s-7.174-3.212-7.174-7.174
			c0-3.962,3.212-7.174,7.174-7.174S3410.291,1342.026,3410.291,1345.988z"/>
	</g>
	<g opacity="0.33">
		<rect x="3130.043" y="1381.772" fill="#F7F7F7" width="546.148" height="4.024"/>
	</g>
	<g>
		<rect x="3130.043" y="1378.841" fill="#634242" width="546.148" height="4.024"/>
	</g>
</g>
<g>
	<g>
		<polygon fill="#F4D4D0" points="3265.053,601.471 3250.238,601.471 3266.058,460.657 3280.873,460.657 		"/>
	</g>
	<g>
		<g>
			<path fill="#506B42" d="M3203.493,465.749c-3.564-15.503-9.934-29.892-18.923-42.755c-15.701-22.471-35.734-34.891-49.77-41.352
				l1.718-3.724c14.495,6.674,35.184,19.505,51.413,42.728c9.294,13.3,15.872,28.163,19.553,44.184L3203.493,465.749z"/>
		</g>
	</g>
	<g>
		<g>
			<path fill="#506B42" d="M3219.946,473.34l-3.969-1.024c6.018-23.415,14.874-46.094,26.323-67.402
				c11.63-21.644,25.912-41.832,42.461-60.008l3.03,2.764c-16.32,17.926-30.415,37.836-41.885,59.186
				C3234.612,427.87,3225.879,450.24,3219.946,473.34z"/>
		</g>
	</g>
	<g>
		<g>
			<path fill="#506B42" d="M3253.052,488.109l-4.065-0.523c1.062-8.312,1.542-24.813-7.16-41.906
				c-11.07-21.73-30.201-31.231-37.91-34.304l1.515-3.809c8.141,3.249,28.345,13.284,40.044,36.257
				C3254.679,461.893,3254.172,479.322,3253.052,488.109z"/>
		</g>
	</g>
	<g>
		<path fill="#506B42" d="M3102.716,371.349c0.569-2.088,9.956-1.352,20.969,1.646c11.012,2.997,19.478,7.121,18.91,9.209
			c-0.569,2.088-9.956,1.352-20.969-1.646C3110.614,377.56,3102.147,373.437,3102.716,371.349z"/>
	</g>
	<g>
		<path fill="#506B42" d="M3114.07,396.687c-0.316-2.141,8.581-5.227,19.871-6.893c11.291-1.665,20.699-1.28,21.015,0.861
			c0.316,2.141-8.581,5.227-19.871,6.893C3123.795,399.214,3114.386,398.828,3114.07,396.687z"/>
	</g>
	<g>
		<path fill="#506B42" d="M3140.952,350.096c2.045-0.709,6.732,7.459,10.468,18.243c3.736,10.784,5.107,20.1,3.062,20.809
			c-2.045,0.708-6.732-7.459-10.468-18.243C3140.278,360.121,3138.907,350.804,3140.952,350.096z"/>
	</g>
	<g>
		<path fill="#506B42" d="M3172.769,357.718c2.143,0.305,2.578,9.711,0.972,21.01c-1.606,11.299-4.645,20.212-6.788,19.907
			c-2.143-0.304-2.578-9.711-0.972-21.01C3167.587,366.327,3170.626,357.414,3172.769,357.718z"/>
	</g>
	<g>
		<path fill="#506B42" d="M3200.473,374.734c1.784,1.225-2.007,9.845-8.467,19.253c-6.461,9.408-13.145,16.041-14.929,14.816
			c-1.784-1.225,2.007-9.845,8.467-19.253C3192.005,380.142,3198.689,373.508,3200.473,374.734z"/>
	</g>
	<g>
		<path fill="#506B42" d="M3219.454,396.642c1.427,1.627-4.372,9.047-12.953,16.571c-8.581,7.525-16.694,12.305-18.121,10.678
			c-1.427-1.628,4.372-9.047,12.953-16.571C3209.914,399.795,3218.027,395.015,3219.454,396.642z"/>
	</g>
	<g>
		<path fill="#506B42" d="M3315.116,321.288c1.427,1.627-4.372,9.046-12.953,16.571c-8.581,7.525-16.694,12.305-18.121,10.678
			c-1.427-1.628,4.372-9.047,12.953-16.571S3313.689,319.66,3315.116,321.288z"/>
	</g>
	<g>
		<path fill="#506B42" d="M3315.487,352.059c0.403,2.127-8.359,5.574-19.572,7.701c-11.213,2.127-20.63,2.127-21.033,0
			c-0.403-2.126,8.359-5.574,19.572-7.701C3305.667,349.932,3315.083,349.932,3315.487,352.059z"/>
	</g>
	<g>
		<path fill="#506B42" d="M3274.329,358.309c-2.126,0.403-5.574-8.36-7.701-19.572c-2.126-11.213-2.126-20.63,0-21.033
			c2.127-0.403,5.574,8.359,7.701,19.572C3276.455,348.489,3276.455,357.905,3274.329,358.309z"/>
	</g>
	<g>
		<path fill="#506B42" d="M3264.554,373.162c-1.875,1.082-8.02-6.053-13.726-15.936s-8.813-18.773-6.938-19.856
			s8.02,6.053,13.726,15.936C3263.322,363.19,3266.428,372.08,3264.554,373.162z"/>
	</g>
	<g>
		<path fill="#506B42" d="M3254.966,386.889c-1.344,1.696-9.685-2.675-18.629-9.764c-8.944-7.089-15.105-14.211-13.76-15.907
			c1.344-1.696,9.685,2.675,18.629,9.764S3256.311,385.193,3254.966,386.889z"/>
	</g>
	<g>
		<path fill="#506B42" d="M3245.399,399.916c-1.083,1.874-9.972-1.232-19.856-6.938c-9.884-5.706-17.019-11.852-15.936-13.727
			c1.082-1.874,9.972,1.232,19.855,6.938C3239.347,391.896,3246.482,398.041,3245.399,399.916z"/>
	</g>
	<g>
		<path fill="#506B42" d="M3306.021,377.612c-0.205,2.155-9.582,3.025-20.943,1.943c-11.361-1.082-20.405-3.706-20.2-5.861
			c0.205-2.155,9.582-3.024,20.943-1.942C3297.182,372.833,3306.226,375.457,3306.021,377.612z"/>
	</g>
	<g>
		<path fill="#506B42" d="M3295.923,398.689c-0.568,2.089-9.956,1.352-20.968-1.646s-19.478-7.121-18.91-9.209
			c0.568-2.088,9.956-1.352,20.968,1.646C3288.025,392.478,3296.491,396.601,3295.923,398.689z"/>
	</g>
	<g>
		<path fill="#506B42" d="M3284.507,419.575c-0.975,1.932-10.025-0.669-20.215-5.81c-10.189-5.141-17.659-10.875-16.684-12.807
			c0.975-1.932,10.026,0.668,20.215,5.81C3278.012,411.909,3285.482,417.643,3284.507,419.575z"/>
	</g>
	<g>
		<path fill="#506B42" d="M3127.016,415.39c-0.82-2.003,7.079-7.13,17.642-11.451c10.563-4.321,19.791-6.2,20.61-4.196
			c0.82,2.003-7.079,7.13-17.642,11.451C3137.063,415.515,3127.836,417.394,3127.016,415.39z"/>
	</g>
	<g>
		<path fill="#506B42" d="M3140.538,430.769c-1.082-1.875,6.053-8.02,15.937-13.726c9.884-5.706,18.773-8.813,19.855-6.938
			c1.082,1.875-6.053,8.02-15.936,13.726C3150.51,429.537,3141.62,432.643,3140.538,430.769z"/>
	</g>
	<g>
		<path fill="#506B42" d="M3153.511,449.229c-1.324-1.712,4.923-8.759,13.953-15.739c9.03-6.98,17.423-11.249,18.746-9.537
			c1.324,1.712-4.923,8.759-13.953,15.739C3163.228,446.671,3154.835,450.941,3153.511,449.229z"/>
	</g>
	<g>
		<polygon fill="#FFFFFF" points="3250.238,601.471 3180.578,601.471 3169.861,460.657 3266.058,460.657 		"/>
	</g>
</g>
<g>
	<g>
		<rect x="294.551" y="557.797" fill="#B28D8D" width="370.309" height="12.156"/>
		<g>
			<rect x="557.065" y="463.379" fill="#D2CBAD" width="30.463" height="93.14"/>
			<rect x="587.792" y="411.676" fill="#D2CBAD" width="34.45" height="144.842"/>
		</g>
	</g>
	<g>
		<rect x="294.551" y="683.769" fill="#B28D8D" width="370.309" height="12.156"/>
		<g>
			
				<rect x="463.88" y="581.594" transform="matrix(-1.836970e-16 1 -1 -1.836970e-16 1129.7404 185.1268)" fill="#767A95" width="16.853" height="151.68"/>
			
				<rect x="408.133" y="599.198" transform="matrix(-1.836970e-16 1 -1 -1.836970e-16 1091.5975 258.4786)" fill="#97A0BF" width="16.853" height="151.68"/>
		</g>
	</g>
</g>
</svg>
